<svg height="512" viewBox="0 0 72.0002 19.7158" width="512" xmlns="http://www.w3.org/2000/svg"><g id="Layer_2" data-name="Layer 2"><g id="astroligical_calendar" data-name="astroligical calendar"><g id="F1_car" data-name="F1 car"><path d="m36 3.1439-3-2.9781h-.0083a.4938.4938 0 0 0 -.3665-.1658h-3.1752a.5.5 0 0 0 0 1h1.3763l2.1237 2.1439z" fill="#212121"/><path d="m66 13.7158-15.897-5.3115-3.26-3.26a3.9893 3.9893 0 0 0 -3.613-1.0943l-10.0315 2.0065a.7106.7106 0 0 1 -.1985-.4893v-.1353a.7162.7162 0 0 1 .7162-.7161h1.2838a1 1 0 0 0 1-1v-1a1 1 0 0 0 -1-1h-7.2563a11.4625 11.4625 0 0 0 -6.7653 2.2093 11.4626 11.4626 0 0 1 -6.7653 2.2094h-1.2131a1 1 0 0 0 -1 1v2.5813a1 1 0 0 1 -1 1h-1a1 1 0 0 1 -1-1v-4.0642a1 1 0 0 0 -1-1h-7a1 1 0 0 0 -1 1v4.4461a1 1 0 0 0 .5528.8944l11.2363 5.6179a1.0006 1.0006 0 0 0 .4472.1056h32.6016a1.0014 1.0014 0 0 0 .3164-.0514l8.4924-2.8308a1.5 1.5 0 0 1 .721-.0566l13.4356 2.6984c.6191.1248 1.1967-.953 1.1967-1.5845zm-29.2838-6a.7115.7115 0 0 1 -.5138-.2207l7.42-1.4839a1.9935 1.9935 0 0 1 1.8062.5469l1.1577 1.1577z" fill="#e53935"/><path d="m46.9207 14.3751-1.6441 3.2879a1 1 0 0 1 -.8944.5528h-31.3822a1 1 0 0 1 -1-1v-.5005h-11a1 1 0 0 1 -1-1v-1a1 1 0 0 1 1-1h11v-.4995a1 1 0 0 1 1-1h5.8787a5.1209 5.1209 0 0 1 3.6213 1.5 5.1217 5.1217 0 0 0 3.6214 1.5h5.806a43.5827 43.5827 0 0 0 13.7826-2.2366 1 1 0 0 1 1.2107 1.3959zm17.0793 2.3407h7a1 1 0 0 0 1-1v-1a1 1 0 0 0 -1-1h-7a1 1 0 0 0 -1 1v1a1 1 0 0 0 1 1z" fill="#212121"/><circle cx="9" cy="13.716" fill="#212121" r="6"/><circle cx="9" cy="13.716" fill="#616161" r="4.238"/><path d="m9 18.4536a4.7378 4.7378 0 1 1 4.7378-4.7378 4.7432 4.7432 0 0 1 -4.7378 4.7378zm0-8.4755a3.7378 3.7378 0 1 0 3.7378 3.7377 3.7419 3.7419 0 0 0 -3.7378-3.7377z" fill="#ff0"/><circle cx="9" cy="13.716" fill="#fff" r="1.506"/><circle cx="54" cy="13.716" fill="#212121" r="6"/><circle cx="54" cy="13.716" fill="#616161" r="4.238"/><path d="m54 18.4536a4.7378 4.7378 0 1 1 4.7378-4.7378 4.7432 4.7432 0 0 1 -4.7378 4.7378zm0-8.4755a3.7378 3.7378 0 1 0 3.7378 3.7377 3.7419 3.7419 0 0 0 -3.7378-3.7377z" fill="#ff0"/><circle cx="54" cy="13.716" fill="#fff" r="1.506"/></g></g></g></svg>