<?xml version="1.0" encoding="utf-8"?>
<!-- Generator: Adobe Illustrator 27.0.0, SVG Export Plug-In . SVG Version: 6.00 Build 0)  -->
<svg version="1.1" id="Capa_1" xmlns="http://www.w3.org/2000/svg" xmlns:xlink="http://www.w3.org/1999/xlink" x="0px" y="0px"
	 viewBox="0 0 512 512" style="enable-background:new 0 0 512 512;" xml:space="preserve">
<style type="text/css">
	.st0{fill:#E02F22;}
	.st1{fill:#F03A30;}
	.st2{fill:#696A6D;}
	.st3{fill:#454546;}
	.st4{fill:#AAADAF;}
	.st5{fill:#525252;}
	.st6{fill:#655E67;}
	.st7{fill:#544F56;}
	.st8{fill:#F23A30;}
	.st9{fill:#B92A22;}
</style>
<g>
	<path class="st0" d="M428.3,159C389.4,90.7,316.9,44.4,233.4,42.9C231.9,42.8,196,67,196,67l-28.6-15.8
		C70.4,78.3-0.3,167.4,0,273.8c0.2,74.9,36,141.5,91.3,183.4c10.2,7.8,22.7,12,35.5,12h40.6l33-10.2l33,10.2h207.9
		c17.7,0,33.9-10,41.9-25.9l23.7-47c6.1-12.2,6.7-26.5,1.6-39.2l-55.7-77.4L428.3,159z"/>
	<path class="st1" d="M508.5,357.1l-102.3-62L428.3,159C389.4,90.7,316.9,44.4,233.4,42.9c-1.5,0-4.5,0.5-4.5,0.5s-10.1-0.3-15.1,0
		c78.7,5.3,146.5,50.5,183.5,115.6l80.3,198.1c5.1,12.7,4.6,26.9-1.6,39.2l-23.7,47c-8,15.9-24.2,25.9-41.9,25.9h30.9
		c17.7,0,33.9-10,41.9-25.9l23.7-47C513.1,384.1,513.7,369.8,508.5,357.1L508.5,357.1z"/>
	<path class="st2" d="M167.3,51.2v417.9h66.1V42.9c-1.5,0-3,0-4.6,0C207.5,42.8,186.9,45.8,167.3,51.2z"/>
	<path class="st3" d="M511.9,377c0.3-6.7-0.8-13.5-3.4-19.9l-79.4-196l-204.7,78l-24.1,43l99.3,52.1
		c53.6,28.2,113.3,42.9,173.8,42.9H511.9z"/>
	<path class="st2" d="M200.4,365.4c-11.6,0-22.7,13.4-33,9.7c-38.1-13.7-65.4-50.2-65.4-93.1s27.3-79.4,65.4-93.1
		c10.3-3.7,21.5,9.7,33,9.7c11.5,0,22.5-13.5,32.7-9.9c17.1,6,32,16.7,43.3,30.4c14.1,17.1,7.1,39,7.1,62.8
		c0,16.5,11.4,32.1,4.2,45.8c-11.4,21.8-30.8,38.9-54.2,47.3C223.1,378.9,212,365.4,200.4,365.4L200.4,365.4z"/>
	<path class="st3" d="M200.4,282l87.2,45.8c7.2-13.7,11.2-29.3,11.2-45.8c0-23.8-8.4-45.7-22.5-62.8l-51.9,19.8L200.4,282z"/>
	<path class="st4" d="M167.3,188.9v186.2c10.3,3.7,21.5,5.7,33,5.7s22.7-2,33-5.7V188.9c-10.3-3.7-21.5-5.7-33-5.7
		S177.7,185.2,167.3,188.9L167.3,188.9z"/>
	<path class="st5" d="M508.5,357.1l-79.4-196l-26.8,10.2l75.3,185.8c2.6,6.4,3.7,13.2,3.4,19.9h30.9
		C512.2,370.3,511.1,363.5,508.5,357.1L508.5,357.1z"/>
	<ellipse class="st6" cx="200.4" cy="282" rx="67.6" ry="67.9"/>
	<path class="st7" d="M200.4,214.1c-5.3,0-10.5,0.6-15.5,1.8c29.9,7,52.1,34,52.1,66.1s-22.3,59.1-52.1,66.1
		c5,1.2,10.1,1.8,15.5,1.8c37.3,0,67.6-30.4,67.6-67.9S237.7,214.1,200.4,214.1L200.4,214.1z"/>
	<ellipse class="st8" cx="200.4" cy="282" rx="32.3" ry="32.5"/>
	<path class="st9" d="M200.4,249.6c-5.6,0-10.9,1.4-15.5,4c10,5.5,16.9,16.2,16.9,28.5s-6.8,23-16.9,28.5c4.6,2.5,9.9,4,15.5,4
		c17.8,0,32.3-14.6,32.3-32.5C232.7,264.1,218.2,249.6,200.4,249.6L200.4,249.6z"/>
</g>
</svg>
